<svg width="551" height="785" fill="none"><g opacity="0.9" clip-path="url(#clip0)"><path d="M455.409 137.593l20.507 23.854c112.828 131.241 96.575 329.398-36.131 440.5-123.924 103.75-130.777 291.961-14.728 404.453l20.814 20.17c55.683 53.98 72.308 136.7 41.801 208l-5.682 13.28c-41.912 97.95-151.024 148.43-252.814 116.98l-93.331-28.85a214.88 214.88 0 01-65.304-33.25l-364.333-272.46c-59.204-44.272-91.522-115.849-85.579-189.539l51.339-636.52c6.51-80.724 57.811-150.947 132.733-181.694l63.276-25.967c205.75-84.434 442.447-27.603 587.432 141.043z" fill="#fff" fill-opacity="0.7"></path><path d="M455.409 137.593l20.507 23.854c112.828 131.241 96.575 329.398-36.131 440.5-123.924 103.75-130.777 291.961-14.728 404.453l20.814 20.17c55.683 53.98 72.308 136.7 41.801 208l-5.682 13.28c-41.912 97.95-151.024 148.43-252.814 116.98l-93.331-28.85a214.88 214.88 0 01-65.304-33.25l-364.333-272.46c-59.204-44.272-91.522-115.849-85.579-189.539l51.339-636.52c6.51-80.724 57.811-150.947 132.733-181.694l63.276-25.967c205.75-84.434 442.447-27.603 587.432 141.043z" fill="url(#paint0_radial)"></path></g><defs><radialGradient id="paint0_radial" cx="0" cy="0" r="1" gradientUnits="userSpaceOnUse" gradientTransform="matrix(634.50016 24.50003 -20.54502 532.0735 -94.5 398.5)"><stop stop-color="#fff" stop-opacity="0"></stop><stop offset="1" stop-color="#fff"></stop></radialGradient><clipPath id="clip0"><path fill="#fff" d="M0 0h551v785H0z"></path></clipPath></defs></svg>