<?xml version="1.0" encoding="utf-8"?>
<!-- Generator: Adobe Illustrator 28.1.0, SVG Export Plug-In . SVG Version: 6.00 Build 0)  -->
<svg version="1.1" id="Laag_1" xmlns="http://www.w3.org/2000/svg" xmlns:xlink="http://www.w3.org/1999/xlink" x="0px" y="0px"
	 viewBox="0 0 551 785" style="enable-background:new 0 0 551 785;" xml:space="preserve">
<style type="text/css">
	.st0{opacity:0.9;clip-path:url(#SVGID_00000098936788625247375780000015818291512795442352_);}
	.st1{fill:#FFFFFF;fill-opacity:0.7;}
	.st2{fill:url(#SVGID_00000112634155806343309910000000183672131936380291_);}
</style>
<g>
	<g>
		<g>
			<defs>
				<rect id="SVGID_1_" y="0" width="551" height="785"/>
			</defs>
			<clipPath id="SVGID_00000079451693370368928590000013148140253001309345_">
				<use xlink:href="#SVGID_1_"  style="overflow:visible;"/>
			</clipPath>
			<g style="opacity:0.9;clip-path:url(#SVGID_00000079451693370368928590000013148140253001309345_);">
				<path class="st1" d="M456.4,324.6l20.5,23.9c112.8,131.2,96.6,329.4-36.1,440.5c-123.9,103.8-130.8,292-14.7,404.5l20.8,20.2
					c55.7,54,72.3,136.7,41.8,208L483,1435c-41.9,97.9-151,148.4-252.8,117l-93.3-28.8c-23.5-7.3-45.6-18.5-65.3-33.2l-364.3-272.5
					c-59.2-44.3-91.5-115.8-85.6-189.5l51.3-636.5c6.5-80.7,57.8-150.9,132.7-181.7l63.3-26C74.7,99.1,311.4,155.9,456.4,324.6
					L456.4,324.6z"/>
				
					<radialGradient id="SVGID_00000086651646056086181290000008350772193534040472_" cx="-441.279" cy="991.4205" r="1" gradientTransform="matrix(634.5002 24.5 20.545 -532.0735 259529.3438 538905.4375)" gradientUnits="userSpaceOnUse">
					<stop  offset="0" style="stop-color:#FFFFFF;stop-opacity:0"/>
					<stop  offset="1" style="stop-color:#FFFFFF"/>
				</radialGradient>
				<path style="fill:url(#SVGID_00000086651646056086181290000008350772193534040472_);" d="M456.4,324.6l20.5,23.9
					c112.8,131.2,96.6,329.4-36.1,440.5c-123.9,103.8-130.8,292-14.7,404.5l20.8,20.2c55.7,54,72.3,136.7,41.8,208L483,1435
					c-41.9,97.9-151,148.4-252.8,117l-93.3-28.8c-23.5-7.3-45.6-18.5-65.3-33.2l-364.3-272.5c-59.2-44.3-91.5-115.8-85.6-189.5
					l51.3-636.5c6.5-80.7,57.8-150.9,132.7-181.7l63.3-26C74.7,99.1,311.4,155.9,456.4,324.6L456.4,324.6z"/>
			</g>
		</g>
	</g>
</g>
</svg>
