<?xml version="1.0" encoding="utf-8"?>
<!-- Generator: Adobe Illustrator 28.1.0, SVG Export Plug-In . SVG Version: 6.00 Build 0)  -->
<svg version="1.1" id="Laag_1" xmlns="http://www.w3.org/2000/svg" xmlns:xlink="http://www.w3.org/1999/xlink" x="0px" y="0px"
	 viewBox="0 0 551 785" style="enable-background:new 0 0 551 785;" xml:space="preserve">
<style type="text/css">
	.st0{opacity:0.9;clip-path:url(#SVGID_00000152233465732744729540000007652280561113118142_);}
	.st1{fill:#FFFFFF;fill-opacity:0.7;}
	.st2{fill:url(#SVGID_00000090992874833546711960000009576641108596526474_);}
</style>
<g>
	<defs>
		<rect id="SVGID_1_" y="0" width="551" height="785"/>
	</defs>
	<clipPath id="SVGID_00000157266519022892890860000014435866971501730726_">
		<use xlink:href="#SVGID_1_"  style="overflow:visible;"/>
	</clipPath>
	<g style="opacity:0.9;clip-path:url(#SVGID_00000157266519022892890860000014435866971501730726_);">
		<path class="st1" d="M455.4,137.6l20.5,23.9c112.8,131.2,96.6,329.4-36.1,440.5c-123.9,103.8-130.8,292-14.7,404.5l20.8,20.2
			c55.7,54,72.3,136.7,41.8,208l-5.7,13.3c-41.9,97.9-151,148.4-252.8,117l-93.3-28.8c-23.5-7.3-45.6-18.5-65.3-33.2l-364.3-272.5
			c-59.2-44.3-91.5-115.8-85.6-189.5l51.3-636.5c6.5-80.7,57.8-150.9,132.7-181.7l63.3-26C73.7-87.9,310.4-31.1,455.4,137.6
			L455.4,137.6z"/>
		
			<radialGradient id="SVGID_00000155145433055084477340000014907807304645037726_" cx="0" cy="992.126" r="1" gradientTransform="matrix(634.5002 24.5 20.545 -532.0735 -20477.748 528282.4375)" gradientUnits="userSpaceOnUse">
			<stop  offset="0" style="stop-color:#FFFFFF;stop-opacity:0"/>
			<stop  offset="1" style="stop-color:#FFFFFF"/>
		</radialGradient>
		<path style="fill:url(#SVGID_00000155145433055084477340000014907807304645037726_);" d="M455.4,137.6l20.5,23.9
			c112.8,131.2,96.6,329.4-36.1,440.5c-123.9,103.8-130.8,292-14.7,404.5l20.8,20.2c55.7,54,72.3,136.7,41.8,208l-5.7,13.3
			c-41.9,97.9-151,148.4-252.8,117l-93.3-28.8c-23.5-7.3-45.6-18.5-65.3-33.2l-364.3-272.5c-59.2-44.3-91.5-115.8-85.6-189.5
			l51.3-636.5c6.5-80.7,57.8-150.9,132.7-181.7l63.3-26C73.7-87.9,310.4-31.1,455.4,137.6L455.4,137.6z"/>
	</g>
</g>
</svg>
